# File created by Blade
# Date/Time:  Wed Jan 21 14:55:23 2015
#---------------------------------------------------------
:version 1.10
:name HOM
:units
  mass 1.0
  length 1.000000
  angle deg
:documentation
     Acclaim Skeleton File
:root
   axis xyz
   order TX TY TZ RX RY RZ
   position 0.000000 0.000000 0.000000
   orientation 0 0 0
:bonedata
   begin
      id 1
      name Spine_dum
      direction 0.000000 1.000000 0.000000
      length 7.067664
      axis 0.0 0.0 0.0 xyz
   end
   begin
      id 2
      name LeftUpLeg_dum
      direction 1.000000 0.000000 0.000000
      length 4.013002
      axis 0.0 0.0 0.0 xyz
   end
   begin
      id 3
      name RightUpLeg_dum
      direction -1.000000 0.000000 0.000000
      length 4.013002
      axis 0.0 0.0 0.0 xyz
   end
   begin
      id 4
      name Spine
      direction 0.000000 1.000000 0.000000
      length 0.000000
      axis 0.0 0.0 0.0 xyz
      dof rx ry rz
   end
   begin
      id 5
      name Spine_dum1
      direction 0.000000 1.000000 0.000000
      length 15.039886
      axis 0.0 0.0 0.0 xyz
   end
   begin
      id 6
      name Spine_dum2
      direction 0.000000 1.000000 0.000000
      length 10.530368
      axis 0.0 0.0 0.0 xyz
   end
   begin
      id 7
      name Spine_dum3
      direction 0.000000 1.000000 0.000000
      length 10.530368
      axis 0.0 0.0 0.0 xyz
   end
   begin
      id 8
      name Head
      direction 0.000000 1.000000 0.000000
      length 4.527550
      axis 0.0 0.0 0.0 xyz
      dof rx ry rz
   end
   begin
      id 9
      name LeftShoulder
      direction 1.000000 0.000000 0.000000
      length 7.028855
      axis 0.0 0.0 -90.0 xyz
      dof rx ry rz
   end
   begin
      id 10
      name LeftArm
      direction 1.000000 0.000000 0.000000
      length 10.797705
      axis 0.0 0.0 -90.0 xyz
      dof rx ry rz
   end
   begin
      id 11
      name LeftForeArm
      direction 1.000000 0.000000 0.000000
      length 7.907442
      axis 0.0 0.0 -90.0 xyz
      dof ry rz rx
   end
   begin
      id 12
      name LeftHand
      direction 0.000000 0.000000 0.000000
      length 0.000000
      axis 0.0 0.0 -90.0 xyz
      dof rx ry rz
   end
   begin
      id 13
      name LeftHand_dum1
      direction 0.000000 0.000000 0.000000
      length 0.000000
      axis 0.0 0.0 -90.0 xyz
   end
   begin
      id 14
      name LeftHand_dum2
      direction 1.000000 0.000000 0.000000
      length 3.937000
      axis 0.0 0.0 -90.0 xyz
   end
   begin
      id 15
      name LeftHandThumb1
      direction 0.000000 0.000000 1.000000
      length 3.937000
      axis 0.0 0.0 -90.0 xyz
      dof rx rz ry
   end
   begin
      id 16
      name RightShoulder
      direction -1.000000 0.000000 0.000000
      length 7.028855
      axis 0.0 0.0 90.0 xyz
      dof rx ry rz
   end
   begin
      id 17
      name RightArm
      direction -1.000000 0.000000 0.000000
      length 10.797705
      axis 0.0 0.0 90.0 xyz
      dof rx ry rz
   end
   begin
      id 18
      name RightForeArm
      direction -1.000000 0.000000 0.000000
      length 7.907442
      axis 0.0 0.0 90.0 xyz
      dof ry rz rx
   end
   begin
      id 19
      name RightHand
      direction 0.000000 0.000000 0.000000
      length 0.000000
      axis 0.0 0.0 90.0 xyz
      dof rx ry rz
   end
   begin
      id 20
      name RightHand_dum1
      direction 0.000000 0.000000 0.000000
      length 0.000000
      axis 0.0 0.0 90.0 xyz
   end
   begin
      id 21
      name RightHand_dum2
      direction -1.000000 0.000000 0.000000
      length 3.937000
      axis 0.0 0.0 90.0 xyz
   end
   begin
      id 22
      name RightHandThumb1
      direction 0.000000 0.000000 1.000000
      length 3.937000
      axis 0.0 0.0 90.0 xyz
      dof rx rz ry
   end
   begin
      id 23
      name LeftUpLeg
      direction 0.000000 -1.000000 0.000000
      length 16.899758
      axis 0.0 0.0 0.0 xyz
      dof rx ry rz
   end
   begin
      id 24
      name LeftLeg
      direction 0.000000 -1.000000 0.000000
      length 17.389183
      axis 0.0 0.0 0.0 xyz
      dof rx ry rz
   end
   begin
      id 25
      name LeftFoot
      direction 0.000000 -0.258819 0.965926
      length 4.924528
      axis 15.0 0.0 0.0 xyz
      dof rx ry rz
   end
   begin
      id 26
      name LeftToeBase
      direction 0.000000 0.000000 1.000000
      length 2.952750
      axis 0.0 0.0 0.0 xyz
      dof rx ry rz
   end
   begin
      id 27
      name RightUpLeg
      direction 0.000000 -1.000000 0.000000
      length 16.899758
      axis 0.0 0.0 0.0 xyz
      dof rx ry rz
   end
   begin
      id 28
      name RightLeg
      direction 0.000000 -1.000000 0.000000
      length 17.389183
      axis 0.0 0.0 0.0 xyz
      dof rx ry rz
   end
   begin
      id 29
      name RightFoot
      direction 0.000000 -0.258819 0.965926
      length 4.924528
      axis 15.0 0.0 0.0 xyz
      dof rx ry rz
   end
   begin
      id 30
      name RightToeBase
      direction 0.000000 0.000000 1.000000
      length 2.952750
      axis 0.0 0.0 0.0 xyz
      dof rx ry rz
   end
:hierarchy
   begin
      root Spine_dum LeftUpLeg_dum RightUpLeg_dum
      Spine_dum Spine
      LeftUpLeg_dum LeftUpLeg
      RightUpLeg_dum RightUpLeg
      Spine Spine_dum1 Spine_dum2 Spine_dum3
      Spine_dum1 Head
      Spine_dum2 LeftShoulder
      Spine_dum3 RightShoulder
      LeftShoulder LeftArm
      LeftArm LeftForeArm
      LeftForeArm LeftHand
      LeftHand LeftHand_dum1 LeftHand_dum2
      LeftHand_dum1 LeftHandThumb1
      RightShoulder RightArm
      RightArm RightForeArm
      RightForeArm RightHand
      RightHand RightHand_dum1 RightHand_dum2
      RightHand_dum1 RightHandThumb1
      LeftUpLeg LeftLeg
      LeftLeg LeftFoot
      LeftFoot LeftToeBase
      RightUpLeg RightLeg
      RightLeg RightFoot
      RightFoot RightToeBase
   end

# File created by Blade
# Date/Time:  Wed Jan 21 14:55:15 2015
# Frame Rate: 120.000 fps
#------------------------------------------------------
:FULLY-SPECIFIED
:DEGREES
129
root 17.251075 35.681176 -21.035718 -176.075008 5.627857 -179.970745
Spine -6.264116 2.076726 -5.122321
Head 29.552426 -39.532585 4.346671
LeftShoulder -14.145730 -21.345232 2.197121
LeftArm -14.690641 -2.371676 -55.016019
LeftForeArm -2.945531 -0.000000 0.260563
LeftHand -6.384801 -0.000000 -2.824954
LeftHandThumb1 -26.253704 0.000000 33.147579
RightShoulder -14.599205 -12.698130 8.396126
RightArm 8.772315 19.809981 60.732366
RightForeArm -28.717789 0.000000 17.614007
RightHand -7.544288 -0.000000 -1.984249
RightHandThumb1 -24.326973 -0.000000 -32.862282
LeftUpLeg 0.720406 13.031882 -1.431149
LeftLeg -1.903693 -0.000000 0.000000
LeftFoot -22.216645 31.279327 -14.184573
LeftToeBase 24.826564 -0.000000 -0.000000
RightUpLeg -2.671577 -4.431612 -2.428941
RightLeg 3.370663 -0.000000 -0.000000
RightFoot -20.988141 -24.576488 15.082322
RightToeBase 24.543479 -0.000000 -0.000000
130
root 17.201470 35.684721 -20.999200 -176.051111 5.903516 -180.002163
Spine -6.034199 2.039197 -5.169121
Head 29.818274 -40.058556 4.410925
LeftShoulder -13.944424 -21.370033 1.937352
LeftArm -15.174499 -2.642231 -56.116927
LeftForeArm -2.770229 -0.000000 -0.008643
LeftHand -6.288957 -0.000000 -3.397405
LeftHandThumb1 -26.253704 0.000000 33.147579
RightShoulder -14.777771 -12.707825 8.677404
RightArm 8.643705 19.182015 61.780666
RightForeArm -28.318176 -0.000000 17.503313
RightHand -7.519400 0.000000 -1.670994
RightHandThumb1 -24.326973 -0.000000 -32.862282
LeftUpLeg 0.562613 13.500994 -1.584635
LeftLeg -1.756588 -0.000000 0.000000
LeftFoot -22.236290 31.153054 -14.148904
LeftToeBase 24.836615 -0.000000 -0.000000
RightUpLeg -3.001195 -4.328065 -2.537047
RightLeg 3.726038 -0.000000 -0.000000
RightFoot -20.991122 -24.436799 15.152902
RightToeBase 24.729920 -0.000000 -0.000000
131
root 17.162098 35.687729 -20.968001 -176.087514 6.172200 -179.945211
Spine -5.703618 1.947143 -5.126002
Head 29.977972 -40.554597 4.526611
LeftShoulder -13.785716 -21.407406 1.736191
LeftArm -15.649776 -2.970818 -57.242263
LeftForeArm -2.620556 -0.000000 -0.186502
LeftHand -6.164637 0.000000 -3.849614
LeftHandThumb1 -26.253704 0.000000 33.147579
RightShoulder -14.935891 -12.716389 8.977099
RightArm 8.572616 18.577531 62.770546
RightForeArm -28.125845 -0.000000 17.320086
RightHand -7.421303 -0.000000 -1.052056
RightHandThumb1 -24.326973 -0.000000 -32.862282
LeftUpLeg 0.510547 13.961023 -1.614477
LeftLeg -1.657744 -0.000000 0.000000
LeftFoot -22.257079 31.071124 -14.054226
LeftToeBase 24.803670 -0.000000 -0.000000
RightUpLeg -3.263606 -4.114629 -2.543943
RightLeg 4.111903 -0.000000 -0.000000
RightFoot -21.025003 -24.361334 15.359223
RightToeBase 24.636346 -0.000000 -0.000000
132
root 17.121058 35.690006 -20.937687 -176.075904 6.363066 -179.931629
Spine -5.438426 1.745502 -5.136083
Head 30.133198 -41.017005 4.680120
LeftShoulder -13.610611 -21.314995 1.564759
LeftArm -16.052374 -3.359663 -58.364887
LeftForeArm -2.507966 -0.000000 -0.284257
LeftHand -6.125980 0.000000 -4.206415
LeftHandThumb1 -26.253704 0.000000 33.147579
RightShoulder -15.095148 -12.709458 9.293160
RightArm 8.290183 17.703866 63.634791
RightForeArm -27.857779 -0.000000 17.410060
RightHand -7.305829 -0.000000 -0.565291
RightHandThumb1 -24.326973 -0.000000 -32.862282
LeftUpLeg 0.358880 14.402752 -1.697324
LeftLeg -1.482404 -0.000000 0.000000
LeftFoot -22.283543 30.913688 -13.953054
LeftToeBase 24.824935 -0.000000 -0.000000
RightUpLeg -3.542720 -4.098762 -2.583128
RightLeg 4.445057 -0.000000 -0.000000
RightFoot -21.037044 -24.218699 15.482565
RightToeBase 24.364132 -0.000000 -0.000000
133
root 17.073332 35.694262 -20.899216 -176.087276 6.742818 -179.923426
Spine -5.106087 1.645615 -5.151232
Head 30.161440 -41.348827 4.941336
LeftShoulder -13.479698 -21.296323 1.420258
LeftArm -16.452402 -4.177394 -59.339469
LeftForeArm -1.911259 -0.000000 -0.382784
LeftHand -5.935782 -0.000000 -4.807129
LeftHandThumb1 -26.253704 0.000000 33.147579
RightShoulder -15.183427 -12.805527 9.654833
RightArm 8.240289 17.052650 64.498023
RightForeArm -27.905247 -0.000000 17.308873
RightHand -7.156131 -0.000000 -0.008665
RightHandThumb1 -24.326973 -0.000000 -32.862282
LeftUpLeg 0.260663 15.008987 -1.802705
LeftLeg -1.366583 -0.000000 0.000000
LeftFoot -22.298801 30.770826 -13.908175
LeftToeBase 24.827235 -0.000000 -0.000000
RightUpLeg -3.906288 -3.909682 -2.649417
RightLeg 4.896656 -0.000000 -0.000000
RightFoot -21.045841 -24.056662 15.634324
RightToeBase 24.464697 -0.000000 -0.000000
134
root 17.021979 35.696528 -20.862809 -176.116167 7.165668 -179.920532
Spine -4.753018 1.528646 -5.140896
Head 30.137586 -41.629008 5.173118
LeftShoulder -13.367570 -21.220577 1.263442
LeftArm -16.811470 -4.610848 -60.414308
LeftForeArm -1.706571 0.000000 -0.346975
LeftHand -5.875798 -0.000000 -5.044700
LeftHandThumb1 -26.253704 0.000000 33.147579
RightShoulder -15.331549 -12.863199 9.975554
RightArm 8.272104 16.548247 65.346126
RightForeArm -28.108124 -0.000000 17.139202
RightHand -6.985404 0.000000 0.817552
RightHandThumb1 -24.326973 -0.000000 -32.862282
LeftUpLeg 0.205712 15.625951 -1.916856
LeftLeg -1.288493 -0.000000 0.000000
LeftFoot -22.311508 30.669928 -13.856774
LeftToeBase 24.746263 -0.000000 -0.000000
RightUpLeg -4.236273 -3.668113 -2.731533
RightLeg 5.309721 -0.000000 -0.000000
RightFoot -21.064492 -23.905191 15.798347
RightToeBase 24.297595 -0.000000 -0.000000
135
root 16.973512 35.699023 -20.825221 -176.072127 7.606833 -179.895346
Spine -4.499168 1.400859 -5.115743
Head 30.133601 -41.883140 5.374466
LeftShoulder -13.232783 -21.130267 1.157695
LeftArm -17.195433 -5.096810 -61.474987
LeftForeArm -1.366438 -0.000000 -0.260826
LeftHand -5.892531 -0.000000 -4.969126
LeftHandThumb1 -26.253704 0.000000 33.147579
RightShoulder -15.424805 -12.912864 10.280493
RightArm 8.153823 16.071633 66.108108
RightForeArm -28.069600 -0.000000 17.002068
RightHand -6.641092 -0.000000 1.654246
RightHandThumb1 -24.326973 -0.000000 -32.862282
LeftUpLeg 0.091565 16.200604 -2.018637
LeftLeg -1.228153 -0.000000 0.000000
LeftFoot -22.324974 30.590559 -13.784763
LeftToeBase 24.779383 -0.000000 -0.000000
RightUpLeg -4.661859 -3.483885 -2.781131
RightLeg 5.758948 -0.000000 -0.000000
RightFoot -20.990510 -23.694922 15.852675
RightToeBase 24.058645 -0.000000 -0.000000
136
root 16.923022 35.700344 -20.786045 -176.037987 8.120774 -179.884776
Spine -4.224386 1.291755 -5.114356
Head 30.059347 -42.078988 5.620694
LeftShoulder -13.077679 -21.040360 1.072338
LeftArm -17.612552 -5.197898 -62.639521
LeftForeArm -1.509754 -0.000000 0.018436
LeftHand -5.948637 -0.000000 -5.346322
LeftHandThumb1 -26.253704 0.000000 33.147579
RightShoulder -15.573695 -12.932105 10.584957
RightArm 8.100540 15.563524 66.846629
RightForeArm -28.211122 -0.000000 16.807392
RightHand -6.290254 -0.000000 2.462824
RightHandThumb1 -24.326973 -0.000000 -32.862282
LeftUpLeg -0.000495 16.893526 -2.142101
LeftLeg -1.198422 -0.000000 0.000000
LeftFoot -22.334270 30.481649 -13.714021
LeftToeBase 24.752731 -0.000000 -0.000000
RightUpLeg -5.088488 -3.238323 -2.859510
RightLeg 6.191381 -0.000000 -0.000000
RightFoot -20.933322 -23.438827 15.937880
RightToeBase 24.036475 -0.000000 -0.000000
137
root 16.879968 35.703510 -20.750905 -175.997045 8.616974 -179.838435
Spine -3.939405 1.138416 -5.084928
Head 29.939572 -42.239067 5.926903
LeftShoulder -12.952299 -21.017833 1.005313
LeftArm -18.009268 -5.182797 -63.779868
LeftForeArm -1.517132 0.000000 0.202845
LeftHand -5.761929 -0.000000 -5.469264
LeftHandThumb1 -26.253704 0.000000 33.147579
RightShoulder -15.752678 -12.923208 10.921091
RightArm 8.016928 14.887166 67.453999
RightForeArm -28.117949 -0.000000 16.590106
RightHand -6.023873 0.000000 3.199407
RightHandThumb1 -24.326973 -0.000000 -32.862282
LeftUpLeg -0.097818 17.520516 -2.210919
LeftLeg -1.138367 -0.000000 0.000000
LeftFoot -22.345347 30.373883 -13.639541
LeftToeBase 24.758522 -0.000000 -0.000000
RightUpLeg -5.533865 -3.029169 -2.892103
RightLeg 6.680287 -0.000000 -0.000000
RightFoot -20.867152 -23.167362 16.018718
RightToeBase 24.062734 -0.000000 -0.000000
138
root 16.833033 35.706082 -20.710283 -175.960046 9.193314 -179.797632
Spine -3.639015 0.955622 -5.045310
Head 29.759917 -42.268766 6.275440
LeftShoulder -12.852894 -20.907565 0.942974
LeftArm -18.283696 -5.338829 -64.877128
LeftForeArm -1.501438 -0.000000 0.405703
LeftHand -5.819914 0.000000 -5.537755
LeftHandThumb1 -26.253704 0.000000 33.147579
RightShoulder -15.844003 -12.931007 11.195958
RightArm 7.946407 14.354187 68.093719
RightForeArm -28.066586 0.000000 16.414684
RightHand -5.908045 0.000000 4.011047
RightHandThumb1 -24.326973 -0.000000 -32.862282
LeftUpLeg -0.185948 18.089975 -2.292226
LeftLeg -1.090857 -0.000000 0.000000
LeftFoot -22.379734 30.387499 -13.614391
LeftToeBase 24.702116 -0.000000 -0.000000
RightUpLeg -6.005160 -2.717945 -2.934703
RightLeg 7.173608 -0.000000 -0.000000
RightFoot -20.799536 -22.942032 16.159206
RightToeBase 23.938286 -0.000000 -0.000000
139
root 16.777098 35.708188 -20.659394 -175.852107 9.850968 -179.817468
Spine -3.407991 0.825287 -5.092984
Head 29.562275 -42.277189 6.631765
LeftShoulder -12.722062 -20.849318 0.922035
LeftArm -18.575823 -5.483229 -65.950455
LeftForeArm -1.308270 0.000000 0.614131
LeftHand -5.822016 -0.000000 -5.489105
LeftHandThumb1 -26.253704 0.000000 33.147579
RightShoulder -15.964392 -12.969990 11.480176
RightArm 7.940132 13.660147 68.686412
RightForeArm -27.962341 -0.000000 16.117022
RightHand -5.623566 -0.000000 4.590994
RightHandThumb1 -24.326973 -0.000000 -32.862282
LeftUpLeg -0.375885 18.646673 -2.484387
LeftLeg -1.039309 -0.000000 0.000000
LeftFoot -22.425240 30.459380 -13.663515
LeftToeBase 24.611190 -0.000000 -0.000000
RightUpLeg -6.607568 -2.600868 -3.034881
RightLeg 7.689528 -0.000000 -0.000000
RightFoot -20.645063 -22.512445 16.123025
RightToeBase 23.944051 -0.000000 -0.000000
140
root 16.727197 35.711106 -20.615686 -175.804166 10.551308 -179.793052
Spine -3.116160 0.693894 -5.097106
Head 29.345297 -42.254695 7.016897
LeftShoulder -12.571979 -20.761835 0.896612
LeftArm -18.771869 -5.672502 -66.982957
LeftForeArm -1.156805 -0.000000 0.744178
LeftHand -5.676926 -0.000000 -5.472789
LeftHandThumb1 -26.253704 0.000000 33.147579
RightShoulder -16.064612 -13.040544 11.771294
RightArm 7.928211 12.653502 69.144060
RightForeArm -27.544441 -0.000000 15.889660
RightHand -5.475021 -0.000000 5.207361
RightHandThumb1 -24.326973 -0.000000 -32.862282
LeftUpLeg -0.466085 19.253819 -2.600195
LeftLeg -1.017756 -0.000000 0.000000
LeftFoot -22.486364 30.531598 -13.670961
LeftToeBase 24.664116 -0.000000 -0.000000
RightUpLeg -7.129811 -2.352984 -3.102748
RightLeg 8.197241 -0.000000 -0.000000
RightFoot -20.490543 -22.106010 16.166262
RightToeBase 23.915458 -0.000000 -0.000000
141
root 16.681812 35.713302 -20.572235 -175.754487 11.307129 -179.749296
Spine -2.822381 0.579483 -5.079717
Head 29.160148 -42.248733 7.322647
LeftShoulder -12.398010 -20.680539 0.850773
LeftArm -18.986241 -4.857015 -68.318780
LeftForeArm -1.739866 -0.000000 1.105353
LeftHand -5.845265 -0.000000 -5.244335
LeftHandThumb1 -26.253704 0.000000 33.147579
RightShoulder -16.169290 -13.150905 12.026961
RightArm 7.986404 11.854356 69.691445
RightForeArm -27.512518 0.000000 15.626917
RightHand -5.284698 -0.000000 5.749280
RightHandThumb1 -24.326973 -0.000000 -32.862282
LeftUpLeg -0.544816 19.799269 -2.685717
LeftLeg -0.991021 -0.000000 0.000000
LeftFoot -22.558691 30.689815 -13.692039
LeftToeBase 24.630592 -0.000000 -0.000000
RightUpLeg -7.671757 -2.082563 -3.142472
RightLeg 8.726404 -0.000000 -0.000000
RightFoot -20.356563 -21.694729 16.320410
RightToeBase 23.834799 -0.000000 -0.000000
